# xmcd CD database file
#
# Track frame offsets:
#	150
#	14497
#	32760
#	52517
#	66710
#	87617
#	101945
#	119897
#	136752
#	152335
#	166087
#	181682
#	199792
#	213825
#	232567
#	256432
#	270975
#	286030
#
# Disc length: 4079 seconds
#
# Revision: 0
# Processed by: cddbd v1.5.2PL0 Copyright (c) Steve Scherf et al.
# Submitted via: CDex 1.70beta2
#
DISCID=ee0fed12
DTITLE=Dave Frishberg and Karin Krog - Dave Frishberg and Karin Krog
DYEAR=1994
DGENRE=Jazz
TTITLE0=You Better Love Me
TTITLE1=Just In Time
TTITLE2=Skylark
TTITLE3=If I Should Lose You
TTITLE4=Old Folks
TTITLE5=Shiny Stockings
TTITLE6=Dear Bix
TTITLE7=Embraceable You
TTITLE8=Nice Work If You Can Get It
TTITLE9=In A Mellow Tone
TTITLE10=Tulip Or Turnip
TTITLE11=My Attorney Bernie
TTITLE12=Oklahoma Toad
TTITLE13=Cornflower Blue
TTITLE14=Hi-Fly
TTITLE15=Blue Monk
TTITLE16=Beautiful Love
TTITLE17=Everytime We Say Goodbye
EXTD=YEAR: 1994
EXTT0=
EXTT1=
EXTT2=
EXTT3=
EXTT4=
EXTT5=
EXTT6=
EXTT7=
EXTT8=
EXTT9=
EXTT10=
EXTT11=
EXTT12=
EXTT13=
EXTT14=
EXTT15=
EXTT16=
EXTT17=
PLAYORDER=
